#!OML:ASF G:\ViconDB\ViconDB\414\test\team2\shane.ASF
:FULLY-SPECIFIED
:DEGREES
157
root 4.02751 16.7726 -11.4025 -7.84593 1.85708 -6.4868
lowerback 7.09549 2.54164 5.38295
upperback 4.68686 3.68487 1.79922
thorax 1.10292 1.94422 -1.36625
lowerneck -14.3558 -7.42559 -8.40015
upperneck 12.3581 -10.2418 11.8276
head 7.21225 -4.37402 4.08832
rclavicle -1.98909e-014 4.77083e-015
rhumerus -16.6944 -0.203538 -92.6147
rradius 30.477
rwrist 38.9599
rhand -33.0654 -17.5467
rfingers 7.12502
rthumb -6.27737 -47.4337
lclavicle -1.98909e-014 4.77083e-015
lhumerus -42.2198 -20.7666 94.6472
lradius 18.197
lwrist -13.1349
lhand -34.8796 8.67017
lfingers 7.12502
lthumb -8.02855 38.4977
rfemur 14.1144 -13.8586 23.4247
rtibia 22.7037
rfoot -21.3218 1.69208
rtoes -12.2408
lfemur -18.9137 4.12465 -6.25859
ltibia 50.153
lfoot -27.2036 -6.59101
ltoes -9.91159
158
root 4.03555 16.8224 -11.2395 -7.66173 1.58845 -6.18054
lowerback 7.32541 2.80172 5.50778
upperback 4.25219 4.07035 1.34554
thorax 0.592026 2.12556 -1.95074
lowerneck -13.9093 -7.63661 -8.81654
upperneck 12.6057 -10.5952 12.3472
head 7.3075 -4.5315 4.29379
rclavicle 1.69215e-014 3.18055e-015
rhumerus -16.7696 0.187617 -92.9745
rradius 30.5471
rwrist 39.6819
rhand -33.2488 -17.4375
rfingers 7.12502
rthumb -6.45437 -47.3192
lclavicle 1.69215e-014 3.18055e-015
lhumerus -43.5061 -20.5616 94.2177
lradius 18.6931
lwrist -12.4109
lhand -34.2849 7.74427
lfingers 7.12502
lthumb -7.45456 37.5929
rfemur 15.3885 -13.9005 22.7859
rtibia 20.8544
rfoot -20.2332 2.55375
rtoes -12.3111
lfemur -19.3992 4.0949 -6.8388
ltibia 47.643
lfoot -27.3755 -7.86867
ltoes -10.0226
159
root 4.03864 16.8532 -11.0742 -7.46979 1.26914 -5.98626
lowerback 7.42305 3.07503 5.6388
upperback 3.89794 4.45924 0.902432
thorax 0.246336 2.31151 -2.52002
lowerneck -13.8206 -7.79543 -8.78889
upperneck 12.9934 -10.9205 12.6235
head 7.47076 -4.65648 4.34169
rclavicle 2.9768e-014 -9.14409e-015
rhumerus -16.841 1.19188 -93.436
rradius 30.9042
rwrist 39.497
rhand -33.2778 -17.2811
rfingers 7.12502
rthumb -6.48236 -47.1619
lclavicle 2.9768e-014 -9.14409e-015
lhumerus -44.5494 -20.4066 93.7456
lradius 18.8785
lwrist -12.1477
lhand -34.3105 8.03867
lfingers 7.12502
lthumb -7.47928 37.8864
rfemur 16.6763 -13.8959 22.3163
rtibia 18.9973
rfoot -19.2357 3.20063
rtoes -12.9762
lfemur -19.885 4.56991 -7.34228
ltibia 45.3231
lfoot -28.0801 -9.02228
ltoes -10.9678
160
root 4.04539 16.8877 -10.9087 -7.23939 0.987291 -5.75723
lowerback 7.38917 3.31885 5.71768
upperback 3.60241 4.79323 0.482842
thorax 0.0306141 2.47201 -3.0237
lowerneck -13.676 -7.93004 -8.96919
upperneck 13.2557 -11.1864 13.0347
head 7.59887 -4.75726 4.4774
rclavicle -2.9122e-014 4.37326e-015
rhumerus -16.6814 2.57431 -93.777
rradius 31.1145
rwrist 39.0972
rhand -33.3484 -17.0575
rfingers 7.12502
rthumb -6.55057 -46.9362
lclavicle -2.9122e-014 4.37326e-015
lhumerus -45.5278 -20.1545 93.2221
lradius 19.1513
lwrist -12.3533
lhand -34.3188 7.85123
lfingers 7.12502
lthumb -7.48725 37.6987
rfemur 17.9807 -13.9242 21.7899
rtibia 17.0094
rfoot -18.197 3.8982
rtoes -13.0802
lfemur -20.4952 4.76341 -7.75638
ltibia 43.0694
lfoot -28.5143 -10.8307
ltoes -10.8944
161
root 4.0472 16.904 -10.7432 -7.11963 0.862617 -5.73214
lowerback 7.40764 3.45733 5.79932
upperback 3.35922 4.99 0.254521
thorax -0.185154 2.56202 -3.32687
lowerneck -13.5484 -8.05075 -9.43453
upperneck 13.5188 -11.3974 13.5587
head 7.74997 -4.83655 4.70513
rclavicle -1.2352e-013 -3.18055e-015
rhumerus -16.4872 4.03056 -93.9631
rradius 31.2393
rwrist 38.9228
rhand -33.4228 -17.0108
rfingers 7.12502
rthumb -6.62237 -46.8872
lclavicle -1.2352e-013 -3.18055e-015
lhumerus -46.3396 -19.4496 92.6488
lradius 19.3468
lwrist -12.4329
lhand -34.5589 7.99385
lfingers 7.12502
lthumb -7.71902 37.833
rfemur 19.4427 -13.8836 21.5905
rtibia 14.8952
rfoot -17.1396 4.28172
rtoes -13.5795
lfemur -21.0957 5.14519 -7.99762
ltibia 41.0456
lfoot -29.1058 -12.437
ltoes -11.2207
